<svg id="Layer_1" data-name="Layer 1" xmlns="http://www.w3.org/2000/svg" viewBox="0 0 100.04 87.55"><defs><style>.cls-1{fill:#fcb95b;}</style></defs><title>new_opportunity</title><path class="cls-1" d="M83,81.24H17a3.07,3.07,0,0,0-3,3v.16a9.4,9.4,0,0,0,9.38,9.37H76.56a9.4,9.4,0,0,0,9.37-9.37v-.16A3.07,3.07,0,0,0,83,81.24Zm7.66-64.06a9.42,9.42,0,0,0-6.09,16.56,16.35,16.35,0,0,1-31.41-5.47,15.85,15.85,0,0,1,.31-3.91,9.39,9.39,0,1,0-12.81-8.75,9.57,9.57,0,0,0,5.94,8.75,15.85,15.85,0,0,1,.31,3.91,16.51,16.51,0,0,1-15.5,15.47,16.16,16.16,0,0,1-15.94-10,9.43,9.43,0,1,0-6.1,2.19l4.37,33.44a2.9,2.9,0,0,0,3,2.5H83.28a3.15,3.15,0,0,0,3-2.5l4.38-33.44a9.37,9.37,0,0,0,0-18.75Z" transform="translate(0.01 -6.23)"/></svg>