<?xml version="1.0" encoding="UTF-8" standalone="no"?>
<svg width="48px" height="48px" viewBox="0 0 48 48" version="1.1" xmlns="http://www.w3.org/2000/svg" xmlns:xlink="http://www.w3.org/1999/xlink">
    <!-- Generator: Sketch 3.8.3 (29802) - http://www.bohemiancoding.com/sketch -->
    <title>salesforce</title>
    <desc>Created with Sketch.</desc>
    <defs>
        <polyline id="path-1" points="0.0064573991 0.0959169329 47.9911749 0.0959169329 47.9911749 34 0.0064573991 34"></polyline>
    </defs>
    <g id="Page-1" stroke="none" stroke-width="1" fill="none" fill-rule="evenodd">
        <g id="Desktop-HD" transform="translate(-880.000000, -1556.000000)">
            <g id="salesforce_logo" transform="translate(880.000000, 1556.000000)">
                <g id="Group-3">
                    <mask id="mask-2" fill="white">
                        <use xlink:href="#path-1"></use>
                    </mask>
                    <g id="Clip-2"></g>
                    <path d="M19.9704753,3.79344409 C21.517991,2.16622364 23.6729327,1.15676038 26.0561435,1.15676038 C29.2243587,1.15676038 31.9881256,2.93931629 33.4598744,5.58577636 C34.7391928,5.00951438 36.1550852,4.68830671 37.6445919,4.68830671 C43.3583139,4.68830671 47.9911749,9.40463898 47.9911749,15.222115 C47.9911749,21.0407859 43.3583139,25.7571182 37.6445919,25.7571182 C36.9471928,25.7571182 36.265722,25.6858594 35.6060987,25.5518147 C34.3104215,27.8846709 31.840574,29.4619233 29.0053453,29.4619233 C27.8189058,29.4619233 26.6965022,29.1856869 25.6963587,28.6930671 C24.3830314,31.8122684 21.321148,34 17.7536502,34 C14.0381704,34 10.8712466,31.6271693 9.6558565,28.2992971 C9.12484305,28.4125942 8.57370404,28.4720128 8.0095426,28.4720128 C3.58600897,28.4720128 0,24.8151118 0,20.3037572 C0,17.2796038 1.61015247,14.6399872 4.0047713,13.2274121 C3.51207175,12.0821661 3.23838565,10.8193866 3.23838565,9.49077955 C3.23838565,4.30268371 7.41169507,0.0959169329 12.5591031,0.0959169329 C15.5813812,0.0959169329 18.2673363,1.54585942 19.9704753,3.79344409" id="Fill-1" fill="#309FD9" mask="url(#mask-2)"></path>
                </g>
                <path d="M6.95052915,17.6776102 C6.920287,17.7574505 6.96107623,17.7735272 6.9710852,17.7871054 C7.06148879,17.8533674 7.15232287,17.9012716 7.2447713,17.9547157 C7.73413453,18.2165048 8.19702242,18.2925431 8.68003587,18.2925431 C9.66468161,18.2925431 10.2763049,17.7646198 10.2763049,16.9138594 L10.2763049,16.8973482 C10.2763049,16.1106773 9.58557848,15.8246645 8.9390852,15.6180575 L8.8541704,15.590901 C8.36599103,15.4308946 7.94518386,15.2925048 7.94518386,14.9679297 L7.94518386,14.951853 C7.94518386,14.6738786 8.19110314,14.46977 8.57284305,14.46977 C8.99666368,14.46977 9.49991031,14.6119617 9.82353363,14.7931502 C9.82353363,14.7931502 9.91942601,14.8550671 9.95386547,14.7617572 C9.97280717,14.711246 10.1368251,14.2660958 10.1544753,14.2177572 C10.1725561,14.1659425 10.1401614,14.1265112 10.1060448,14.1061981 C9.735713,13.8787348 9.22450224,13.7238339 8.69564126,13.7238339 L8.59770404,13.7242684 C7.69635874,13.7242684 7.06697758,14.2741342 7.06697758,15.0613482 L7.06697758,15.0778594 C7.06697758,15.9070032 7.76104036,16.1768307 8.41140807,16.3639936 L8.51569507,16.397016 C8.98988341,16.5434441 9.39809865,16.6703195 9.39809865,17.0064089 L9.39809865,17.0233546 C9.39809865,17.330984 9.13205381,17.5600767 8.70489686,17.5600767 C8.53840359,17.5600767 8.00868161,17.5571438 7.43655605,17.1922684 C7.36756951,17.1506645 7.32807175,17.12177 7.27426009,17.0887476 C7.24606278,17.0709329 7.17546188,17.0403003 7.14478924,17.1337188 L6.95052915,17.6776102 Z" id="Fill-4" fill="#FFFFFF"></path>
                <path d="M21.3623677,17.6776102 C21.3321256,17.7574505 21.3729148,17.7735272 21.3826009,17.7871054 C21.4730045,17.8533674 21.5637309,17.9012716 21.656287,17.9547157 C22.1459731,18.2165048 22.6084305,18.2925431 23.0918744,18.2925431 C24.0765202,18.2925431 24.6878206,17.7646198 24.6878206,16.9138594 L24.6878206,16.8973482 C24.6878206,16.1106773 23.9975247,15.8246645 23.3504933,15.6180575 L23.266009,15.590901 C22.7779372,15.4308946 22.3565919,15.2925048 22.3565919,14.9679297 L22.3565919,14.951853 C22.3565919,14.6738786 22.6030493,14.46977 22.9842511,14.46977 C23.4085022,14.46977 23.9113184,14.6119617 24.2350493,14.7931502 C24.2350493,14.7931502 24.3308341,14.8550671 24.3653812,14.7617572 C24.3846457,14.711246 24.5482332,14.2660958 24.5658834,14.2177572 C24.5843946,14.1659425 24.552,14.1265112 24.5178834,14.1061981 C24.1475516,13.8787348 23.6372018,13.7238339 23.1070493,13.7238339 L23.0091121,13.7242684 C22.1077668,13.7242684 21.4783857,14.2741342 21.4783857,15.0613482 L21.4783857,15.0778594 C21.4783857,15.9070032 22.1733094,16.1768307 22.8228161,16.3639936 L22.9275336,16.397016 C23.4013991,16.5434441 23.8103677,16.6703195 23.8103677,17.0064089 L23.8103677,17.0233546 C23.8103677,17.330984 23.5447534,17.5600767 23.1163049,17.5600767 C22.9498117,17.5600767 22.4209507,17.5571438 21.8483946,17.1922684 C21.7789776,17.1506645 21.7381883,17.1230735 21.6860987,17.0887476 C21.6684484,17.0776677 21.585148,17.0445367 21.5570583,17.1337188 L21.3623677,17.6776102 Z" id="Fill-5" fill="#FFFFFF"></path>
                <path d="M31.2006457,16.0109585 C31.2006457,16.4913035 31.1119641,16.8710607 30.9370762,17.1383898 C30.7634798,17.4035463 30.5015247,17.5329201 30.1370045,17.5329201 C29.7717309,17.5329201 29.5114978,17.4035463 29.3408072,17.1383898 C29.1680717,16.8710607 29.080574,16.4913035 29.080574,16.0109585 C29.080574,15.5310479 29.1680717,15.1524856 29.3399462,14.8877636 C29.5114978,14.6255399 29.7717309,14.49823 30.1370045,14.49823 C30.5015247,14.49823 30.7634798,14.6255399 30.9370762,14.8877636 C31.1119641,15.1524856 31.2006457,15.5310479 31.2006457,16.0109585 M32.022565,15.1194633 C31.9418475,14.8440958 31.815713,14.6013163 31.6487892,14.3993802 C31.4815426,14.1961406 31.2692018,14.0332013 31.0173632,13.9152332 C30.7663857,13.7968307 30.469991,13.7365431 30.1370045,13.7365431 C29.8032646,13.7365431 29.5064395,13.7968307 29.2554619,13.9152332 C29.0044843,14.0332013 28.7921435,14.1961406 28.6248969,14.3998147 C28.4571121,14.6021853 28.3314081,14.8448562 28.2511211,15.1194633 C28.1704036,15.3935272 28.1296143,15.6935527 28.1296143,16.0109585 C28.1296143,16.3283642 28.1704036,16.6287157 28.2511211,16.9020192 C28.3314081,17.1769521 28.4571121,17.419623 28.6248969,17.6225367 C28.7921435,17.8253419 29.0049148,17.9878466 29.2563229,18.1032077 C29.5073004,18.2186773 29.8032646,18.2767923 30.1370045,18.2767923 C30.469991,18.2767923 30.7655247,18.2186773 31.0173632,18.1032077 C31.2683408,17.9878466 31.4806816,17.8253419 31.6487892,17.6225367 C31.815713,17.420492 31.9418475,17.1778211 32.022565,16.9020192 C32.102852,16.6282812 32.1436413,16.3283642 32.1436413,16.0109585 C32.1436413,15.6935527 32.102852,15.3935272 32.022565,15.1194633" id="Fill-6" fill="#FFFFFF"></path>
                <path d="M38.7704395,17.4039808 C38.7435336,17.3238147 38.6653991,17.3543387 38.6653991,17.3543387 C38.5459372,17.4006134 38.4190493,17.4425431 38.2827982,17.4638339 C38.1461166,17.485885 37.9952287,17.4965304 37.8329327,17.4965304 C37.4356951,17.4965304 37.1190673,17.3768243 36.8929507,17.1413227 C36.666296,16.9049521 36.5385471,16.5234569 36.5402691,16.0071565 C36.5414529,15.5382173 36.653704,15.1851821 36.8554978,14.9153546 C37.0556771,14.6475911 37.3612197,14.5100703 37.7673901,14.5100703 C38.1057578,14.5100703 38.3648072,14.5499361 38.6354798,14.6353163 C38.6354798,14.6353163 38.7006996,14.6636677 38.7309417,14.5783962 C38.8036951,14.3764601 38.8562152,14.2330735 38.9331659,14.0119105 C38.9550135,13.9482556 38.9016323,13.9219681 38.8818296,13.9143642 C38.7754978,13.8723259 38.5240897,13.8032396 38.333704,13.7739105 C38.1566637,13.7471885 37.9485202,13.7327412 37.7173453,13.7327412 C37.3726278,13.7327412 37.0649327,13.7925942 36.8016861,13.9105623 C36.5385471,14.0280958 36.3165202,14.1914696 36.1395874,14.3942748 C35.9629776,14.5970799 35.8293094,14.8397508 35.7401973,15.1147923 C35.6506547,15.3884217 35.6060987,15.6888818 35.6060987,16.0079169 C35.6060987,16.695738 35.7898117,17.2516869 36.1530404,17.6581661 C36.5166996,18.0675783 37.0627803,18.2747284 37.7753543,18.2747284 C38.1961614,18.2747284 38.6279462,18.1885879 38.9390852,18.0655144 C38.9390852,18.0655144 38.998278,18.0361853 38.9722332,17.9666645 L38.7704395,17.4039808 Z" id="Fill-7" fill="#FFFFFF"></path>
                <path d="M40.208287,15.5501661 C40.2477848,15.2831629 40.3205381,15.0613482 40.4331121,14.8881981 C40.6030493,14.6255399 40.862852,14.4804153 41.2281256,14.4804153 C41.5935067,14.4804153 41.8339372,14.6255399 42.0075336,14.8881981 C42.1223677,15.0616741 42.1724126,15.2925048 42.1921076,15.5509265 L40.208287,15.5501661 Z M42.9745291,14.9636933 C42.9046816,14.6972332 42.7319462,14.4290351 42.6188341,14.3063962 C42.4397489,14.1111949 42.2644305,13.9754121 42.0908341,13.8999169 C41.8641794,13.8019361 41.5922152,13.7369776 41.2937758,13.7369776 C40.9469058,13.7369776 40.6315695,13.7959617 40.3755336,13.9168626 C40.1190673,14.0383067 39.9042511,14.2041789 39.734852,14.4103514 C39.5663139,14.6161981 39.4393184,14.8610415 39.3581704,15.1393419 C39.2770224,15.4155783 39.2362332,15.7169073 39.2362332,16.0350735 C39.2362332,16.3588882 39.2787444,16.6609776 39.3623677,16.9312396 C39.4472825,17.2054121 39.5826726,17.4451502 39.7650942,17.6454569 C39.9484843,17.8460895 40.183426,18.0027284 40.4650762,18.112984 C40.7451121,18.2220447 41.0847713,18.2789649 41.4749058,18.2776613 C42.2783139,18.2750543 42.701704,18.0943003 42.8757309,17.9971885 C42.9068341,17.9793738 42.9357848,17.9491757 42.8996233,17.8627093 L42.7172018,17.3483642 C42.689435,17.2724345 42.6124843,17.3000256 42.6124843,17.3000256 C42.4132735,17.3746518 42.1307623,17.5088051 41.4707085,17.5070671 C41.0389238,17.5066326 40.7194978,17.3785623 40.5193184,17.1769521 C40.3141883,16.9719744 40.2124843,16.669885 40.1955874,16.243853 L42.976574,16.2455911 C42.976574,16.2455911 43.0501883,16.2451565 43.057722,16.1725942 C43.0606278,16.1425048 43.1527534,15.5958978 42.9745291,14.9636933 L42.9745291,14.9636933 Z" id="Fill-8" fill="#FFFFFF"></path>
                <path d="M17.930583,15.5501661 C17.9701883,15.2831629 18.0428341,15.0613482 18.1550852,14.8881981 C18.3262063,14.6255399 18.5852556,14.4804153 18.9505291,14.4804153 C19.3159103,14.4804153 19.5572018,14.6255399 19.7307982,14.8881981 C19.8452018,15.0616741 19.895139,15.2925048 19.9149417,15.5509265 L17.930583,15.5501661 Z M20.6969327,14.9636933 C20.6270852,14.6972332 20.4543498,14.4290351 20.3416682,14.3063962 C20.162583,14.1111949 19.9872646,13.9754121 19.8132377,13.8999169 C19.5861525,13.8019361 19.3146188,13.7369776 19.0169327,13.7369776 C18.6693094,13.7369776 18.3539731,13.7959617 18.0979372,13.9168626 C17.8419013,14.0383067 17.6266547,14.2041789 17.4572556,14.4103514 C17.2887175,14.6161981 17.161722,14.8610415 17.0810045,15.1393419 C16.9998565,15.4155783 16.9586368,15.7169073 16.9586368,16.0350735 C16.9586368,16.3588882 17.001148,16.6609776 17.0852018,16.9312396 C17.1696861,17.2054121 17.3050762,17.4451502 17.4874978,17.6454569 C17.6712108,17.8460895 17.9062601,18.0027284 18.1874798,18.112984 C18.4675157,18.2220447 18.8076054,18.2789649 19.1973094,18.2776613 C20.0007175,18.2750543 20.424,18.0943003 20.5981345,17.9971885 C20.6292377,17.9793738 20.6581883,17.9491757 20.6220269,17.8627093 L20.4396054,17.3483642 C20.4122691,17.2724345 20.3348879,17.3000256 20.3348879,17.3000256 C20.1356771,17.3746518 19.8535964,17.5088051 19.1931121,17.5070671 C18.7621883,17.5066326 18.4417937,17.3785623 18.241722,17.1769521 C18.0365919,16.9719744 17.9348879,16.669885 17.917991,16.243853 L20.6989776,16.2455911 C20.6989776,16.2455911 20.7725919,16.2451565 20.7801256,16.1725942 C20.7830314,16.1425048 20.8755874,15.5958978 20.6969327,14.9636933 L20.6969327,14.9636933 Z" id="Fill-9" fill="#FFFFFF"></path>
                <path d="M11.917991,17.3886645 C11.8087534,17.3013291 11.794009,17.279278 11.758278,17.2219233 C11.7023139,17.1357827 11.6742242,17.0135783 11.6742242,16.8570479 C11.6742242,16.6104665 11.7553722,16.432754 11.9221883,16.3134824 C11.9210045,16.3134824 12.162296,16.1029649 12.7293632,16.1106773 C13.1278924,16.1157827 13.4848789,16.1755272 13.4848789,16.1755272 L13.4848789,17.451885 C13.4848789,17.451885 13.1313363,17.5282492 12.7335605,17.5524728 C12.1677848,17.5872332 11.9159462,17.3879042 11.917991,17.3886645 M13.0248969,15.4160128 C12.9118924,15.4075399 12.7659552,15.4033035 12.5910673,15.4033035 C12.3526816,15.4033035 12.1219372,15.4329585 11.9053991,15.4919425 C11.6881076,15.551361 11.4929865,15.6421725 11.3248789,15.763508 C11.1558027,15.8857125 11.0204126,16.0419169 10.9216143,16.2269073 C10.8228161,16.4118978 10.7728789,16.6295847 10.7728789,16.8731246 C10.7728789,17.1222045 10.814852,17.3381534 10.9001973,17.5146709 C10.9851121,17.6920575 11.1070493,17.8402236 11.2629955,17.9538466 C11.4173274,18.0675783 11.608574,18.1512204 11.8293094,18.2017316 C12.0478924,18.2522428 12.2955336,18.2776613 12.5663139,18.2776613 C12.8521614,18.2776613 13.1355336,18.2534377 13.4112646,18.2068371 C13.6840897,18.1596933 14.0187982,18.0913674 14.1116771,18.0693163 C14.2041256,18.0481342 14.3063677,18.0192396 14.3063677,18.0192396 C14.3756771,18.0014249 14.3698655,17.9275591 14.3698655,17.9275591 L14.368574,15.3603962 C14.368574,14.7965176 14.2197309,14.379393 13.9271031,14.1205367 C13.6349058,13.8625495 13.204843,13.7323067 12.6490762,13.7323067 C12.4401794,13.7323067 12.105148,13.7607668 11.9033543,13.8015016 C11.9033543,13.8015016 11.2962511,13.9203387 11.046565,14.1180383 C11.046565,14.1180383 10.9914619,14.1523642 11.020843,14.2300319 L11.2175785,14.7638211 C11.2424395,14.833016 11.309704,14.8092268 11.309704,14.8092268 C11.309704,14.8092268 11.3306906,14.800754 11.3555516,14.7858722 C11.8899013,14.4926901 12.5671749,14.5011629 12.5671749,14.5011629 C12.8676592,14.5011629 13.0989417,14.5631885 13.2548879,14.6827859 C13.4062063,14.800754 13.483157,14.9772716 13.483157,15.3519233 L13.483157,15.4707604 C13.2447713,15.436 13.0248969,15.4160128 13.0248969,15.4160128" id="Fill-10" fill="#FFFFFF"></path>
                <path d="M35.4605919,13.9691118 C35.4816861,13.9058914 35.43713,13.8753674 35.4190493,13.8680895 C35.3714798,13.8502748 35.1348161,13.7997636 34.9528251,13.7879233 C34.6030493,13.7663067 34.4087892,13.8257252 34.2351928,13.9045879 C34.0627803,13.9826901 33.8715336,14.1104345 33.7655247,14.2546901 L33.7646637,13.9121917 C33.7646637,13.8651565 33.7319462,13.8277891 33.6852377,13.8277891 L32.9722332,13.8277891 C32.9256323,13.8277891 32.8923767,13.8651565 32.8923767,13.9121917 L32.8923767,18.1002748 C32.8923767,18.1474185 32.9298296,18.1851118 32.9772915,18.1851118 L33.7079462,18.1851118 C33.7542242,18.1851118 33.7915695,18.1474185 33.7915695,18.1002748 L33.7915695,16.0083514 C33.7915695,15.7270096 33.8227803,15.4474058 33.8841256,15.2713227 C33.9441794,15.0969776 34.0257578,14.9581534 34.1275695,14.8584345 C34.228843,14.7587157 34.344861,14.6891949 34.4718565,14.6500895 C34.6008969,14.6097891 34.7438206,14.5966454 34.8439103,14.5966454 C34.9901704,14.5966454 35.1495605,14.6348818 35.1495605,14.6348818 C35.2038027,14.6407476 35.2336143,14.6072907 35.2516951,14.5589521 C35.299157,14.4307732 35.4349776,14.045476 35.4605919,13.9691118" id="Fill-11" fill="#FFFFFF"></path>
                <path d="M28.6008969,12.0282875 C28.5117848,12.0006965 28.4314978,11.9820128 28.3259193,11.9628946 C28.2187265,11.9429073 28.0918386,11.9332396 27.9476233,11.9332396 C27.4448072,11.9332396 27.0483229,12.0770607 26.770009,12.3600319 C26.493417,12.6413738 26.3050762,13.0700128 26.2104753,13.6330224 L26.1768969,13.8231182 L25.5453632,13.8231182 C25.5453632,13.8231182 25.4680897,13.8201853 25.4520538,13.9050224 L25.3486278,14.4888882 C25.3406637,14.5445048 25.3650942,14.5792652 25.4390314,14.5792652 L26.0540987,14.5792652 L25.4297758,18.0931054 C25.3810224,18.3756422 25.3254888,18.6086454 25.2632825,18.7851629 C25.2023677,18.959508 25.1426368,19.0897508 25.0695605,19.1844728 C24.997991,19.2756102 24.931157,19.3439361 24.8147085,19.3830415 C24.7189238,19.4153035 24.6078565,19.4300767 24.4872108,19.4300767 C24.4203767,19.4300767 24.3308341,19.4186709 24.2644305,19.4050927 C24.1984574,19.3923834 24.1635874,19.3775016 24.114296,19.3566454 C24.114296,19.3566454 24.0425112,19.3291629 24.0134529,19.4017252 C23.9907444,19.4614696 23.8272646,19.9163962 23.8074619,19.9723387 C23.7876592,20.0279553 23.8149955,20.0712971 23.850296,20.0844409 C23.9323049,20.1132268 23.9928969,20.1327796 24.104287,20.1590671 C24.2593722,20.196 24.3901345,20.1981725 24.5120717,20.1981725 C24.7681076,20.1981725 25.0018655,20.1621086 25.1948341,20.0916102 C25.389417,20.0203514 25.5588161,19.8964089 25.7089507,19.7296677 C25.8703857,19.5489137 25.9729507,19.3596869 26.0700269,19.1012652 C26.1667803,18.8453419 26.2487892,18.5280447 26.3151928,18.1579553 L26.94113,14.5792652 L27.8576502,14.5792652 C27.8576502,14.5792652 27.9349238,14.5817636 27.9505291,14.497361 L28.0543857,13.9134952 C28.0610583,13.8578786 28.0380269,13.8231182 27.9639821,13.8231182 L27.0743677,13.8231182 C27.078565,13.8032396 27.1189238,13.4870288 27.2211659,13.1904792 C27.264861,13.0627348 27.34687,12.9609521 27.4166099,12.8904537 C27.4843049,12.8212588 27.5633004,12.7724856 27.6495067,12.7436997 C27.737435,12.7152396 27.8378475,12.7012268 27.9476233,12.7012268 C28.0316771,12.7012268 28.1136861,12.7110032 28.1763229,12.724147 C28.2624215,12.7423962 28.2961076,12.752607 28.3188161,12.7589073 C28.4092197,12.7873674 28.4209507,12.7602109 28.4394619,12.7161086 L28.6518027,12.1267029 C28.6736502,12.0634824 28.6206996,12.0363259 28.6008969,12.0282875" id="Fill-12" fill="#FFFFFF"></path>
                <path d="M16.1737399,18.1002748 C16.1737399,18.1474185 16.1410224,18.1859808 16.0943139,18.1859808 L15.3565561,18.1859808 C15.3098475,18.1859808 15.2765919,18.1474185 15.2765919,18.1002748 L15.2765919,12.1084537 C15.2765919,12.0613099 15.3098475,12.0236166 15.3565561,12.0236166 L16.0943139,12.0236166 C16.1410224,12.0236166 16.1737399,12.0613099 16.1737399,12.1084537 L16.1737399,18.1002748 Z" id="Fill-13" fill="#FFFFFF"></path>
            </g>
            <g id="slices" transform="translate(880.000000, 586.000000)"></g>
        </g>
    </g>
</svg>